<svg xmlns="http://www.w3.org/2000/svg" width="15.996" height="11.199" viewBox="0 0 15.996 11.199">
  <defs>
    <style>
      .cls-1 {
        fill: #e2c87e;
      }
    </style>
  </defs>
  <g id="Component_273_4" data-name="Component 273 – 4" transform="translate(0 0)">
    <path id="Path_6595" data-name="Path 6595" class="cls-1" d="M354,304.2a8.636,8.636,0,0,1-3.8-.828,8.065,8.065,0,0,1-2.432-1.825,8.455,8.455,0,0,1-1.69-2.693L346,298.6l.084-.253a8.519,8.519,0,0,1,1.687-2.693,8.051,8.051,0,0,1,2.431-1.825,9.117,9.117,0,0,1,7.592,0,8.064,8.064,0,0,1,2.432,1.825,8.409,8.409,0,0,1,1.69,2.693l.08.253-.084.253A8.337,8.337,0,0,1,354,304.2Zm0-9.6a6.644,6.644,0,0,0-6.3,4,6.969,6.969,0,0,0,12.609,0A6.639,6.639,0,0,0,354,294.6Zm0,6.4a2.416,2.416,0,1,1,1.692-.707A2.38,2.38,0,0,1,354,301Z" transform="translate(-346 -292.999)"/>
  </g>
</svg>
