<svg xmlns="http://www.w3.org/2000/svg" width="22" height="22" viewBox="0 0 22 22">
  <g id="Instagram" transform="translate(-0.498 -0.06)">
    <path id="Combined_Shape" data-name="Combined Shape" d="M11,22A11,11,0,0,1,3.222,3.222,11,11,0,1,1,18.778,18.778,10.928,10.928,0,0,1,11,22ZM11,5.133h-.345c-1.255,0-1.482.008-2.074.035a4.34,4.34,0,0,0-1.424.272A3,3,0,0,0,5.441,7.157a4.308,4.308,0,0,0-.272,1.424c-.029.639-.036.849-.036,2.419s.007,1.78.036,2.419a4.34,4.34,0,0,0,.272,1.424,3.007,3.007,0,0,0,1.716,1.716,4.34,4.34,0,0,0,1.424.272c.639.029.849.036,2.419.036s1.78-.007,2.418-.036a4.344,4.344,0,0,0,1.425-.272,3.012,3.012,0,0,0,1.716-1.716,4.373,4.373,0,0,0,.272-1.424c.029-.628.035-.836.035-2.419s-.007-1.792-.035-2.419a4.373,4.373,0,0,0-.272-1.424,3.007,3.007,0,0,0-1.716-1.716,4.351,4.351,0,0,0-1.425-.272C12.779,5.14,12.569,5.133,11,5.133Z" transform="translate(0.498 0.06)" fill="#fff"/>
    <path id="Combined_Shape-2" data-name="Combined Shape" d="M4.745,9.49c-1.543,0-1.726-.006-2.339-.034a3.2,3.2,0,0,1-1.075-.2,1.777,1.777,0,0,1-.665-.433,1.794,1.794,0,0,1-.433-.665,3.2,3.2,0,0,1-.2-1.075C.006,6.481,0,6.3,0,4.744S.006,3.008.034,2.406a3.2,3.2,0,0,1,.2-1.075A1.8,1.8,0,0,1,.666.665,1.786,1.786,0,0,1,1.332.232a3.208,3.208,0,0,1,1.075-.2C2.947.008,3.151,0,4.226,0h.52C6.3,0,6.482.007,7.084.035a3.231,3.231,0,0,1,1.075.2,1.788,1.788,0,0,1,.665.433,1.786,1.786,0,0,1,.433.665,3.2,3.2,0,0,1,.2,1.074c.028.613.034.8.034,2.338s-.006,1.726-.034,2.338a3.2,3.2,0,0,1-.2,1.074,1.925,1.925,0,0,1-1.1,1.1,3.2,3.2,0,0,1-1.075.2C6.472,9.484,6.288,9.49,4.745,9.49Zm0-7.716A2.972,2.972,0,1,0,7.717,4.746,2.976,2.976,0,0,0,4.745,1.774ZM7.835.962h0a.694.694,0,1,0,.7.693A.694.694,0,0,0,7.833.963Z" transform="translate(6.753 6.316)" fill="#fff"/>
    <path id="Shape" d="M3.859,1.93A1.93,1.93,0,1,1,1.93,0h0A1.93,1.93,0,0,1,3.859,1.93Z" transform="translate(9.569 9.13)" fill="#fff"/>
  </g>
</svg>
