<svg id="Layer_1" data-name="Layer 1" xmlns="http://www.w3.org/2000/svg" xmlns:xlink="http://www.w3.org/1999/xlink" viewBox="0 0 22.05 22.05"><defs><style>.cls-1{fill:none;}.cls-2{clip-path:url(#clip-path);}.cls-3{fill:#f4f4f4;}</style><clipPath id="clip-path" transform="translate(0 0.05)"><rect class="cls-1" width="22" height="22"/></clipPath></defs><g class="cls-2"><g id="Twitter"><g id="Twitter-2"><path id="Combined_Shape" data-name="Combined Shape" class="cls-3" d="M11,22a11.05,11.05,0,1,1,7.88-3.33l-.1.11A10.92,10.92,0,0,1,11,22ZM5.85,9.73h0a2.87,2.87,0,0,0,.28,1,2.47,2.47,0,0,0,1,1l.38.18H7.09c-.27,0-.37,0-.4,0s0,.07,0,.13A2.35,2.35,0,0,0,8.13,13.4l.48.16-.42.25a4.37,4.37,0,0,1-2.06.58,2.25,2.25,0,0,0-.63.06A5.51,5.51,0,0,0,7,15.13a6.5,6.5,0,0,0,5-.57,6.72,6.72,0,0,0,2.56-3,8.06,8.06,0,0,0,.53-2.33c0-.36,0-.4.45-.83a3.86,3.86,0,0,0,.54-.6s0-.09,0-.1h0l-.33.1a1.82,1.82,0,0,1-.54.15s-.06,0-.07,0,0-.12.18-.27a2.35,2.35,0,0,0,.53-.83h0a.92.92,0,0,0-.23.09,3.29,3.29,0,0,1-.68.26l-.41.14L14.17,7a3.09,3.09,0,0,0-.65-.34,2.57,2.57,0,0,0-.62-.08,2.26,2.26,0,0,0-.73.1,2.22,2.22,0,0,0-1.5,2.24l0,.38-.38-.05a6.22,6.22,0,0,1-3.66-1.8L6.14,7,6,7.34a2.25,2.25,0,0,0,.47,2.3q.21.22.18.27s0,0,0,0a1.45,1.45,0,0,1-.42-.12A1.89,1.89,0,0,0,5.85,9.73Z" transform="translate(0 0.05)"/></g></g></g></svg>