<svg xmlns="http://www.w3.org/2000/svg" width="22" height="22" viewBox="0 0 22 22">
  <g id="Youtube" transform="translate(-0.392 -0.06)">
    <path id="Combined_Shape" data-name="Combined Shape" d="M11,22A11,11,0,0,1,3.222,3.222,11,11,0,1,1,18.778,18.778,10.928,10.928,0,0,1,11,22ZM11,6.967a34.279,34.279,0,0,0-4.584.252A1.489,1.489,0,0,0,5.379,8.284a16.152,16.152,0,0,0-.246,2.9,16.142,16.142,0,0,0,.246,2.9,1.489,1.489,0,0,0,1.037,1.065A34.279,34.279,0,0,0,11,15.4a34.279,34.279,0,0,0,4.584-.252,1.49,1.49,0,0,0,1.037-1.065,16.182,16.182,0,0,0,.245-2.9,16.192,16.192,0,0,0-.245-2.9,1.49,1.49,0,0,0-1.037-1.065A34.279,34.279,0,0,0,11,6.967Z" transform="translate(0.392 0.06)" fill="#f4f4f4"/>
    <path id="Fill_2" data-name="Fill 2" d="M0,0,2.894,1.809,0,3.618Z" transform="translate(10.121 9.759)" fill="#f4f4f4"/>
  </g>
</svg>
